<svg xmlns="http://www.w3.org/2000/svg" viewBox="0 0 64 64" width="64" height="64">
  <rect width="64" height="64" rx="14" fill="#101016"/>
  <path d="M14 15h36a6 6 0 0 1 6 6v18a6 6 0 0 1-6 6H29l-10 9v-9h-5a6 6 0 0 1-6-6V21a6 6 0 0 1 6-6z" fill="#f6ec81"/>
  <g stroke="#101016" stroke-width="3.4" stroke-linecap="round">
    <line x1="21" y1="27" x2="21" y2="33"/>
    <line x1="27" y1="23" x2="27" y2="37"/>
    <line x1="33" y1="26" x2="33" y2="34"/>
    <line x1="39" y1="21" x2="39" y2="39"/>
    <line x1="45" y1="27" x2="45" y2="33"/>
  </g>
</svg>
